<?xml version="1.0" encoding="UTF-8" standalone="no"?>
<svg
   version="1.1"
   width="256"
   height="256"
   viewBox="0 0 256 256"
   xml:space="preserve"
   id="svg1"
   sodipodi:docname="spir.svg"
   inkscape:version="1.3.2 (091e20e, 2023-11-25, custom)"
   xmlns:inkscape="http://www.inkscape.org/namespaces/inkscape"
   xmlns:sodipodi="http://sodipodi.sourceforge.net/DTD/sodipodi-0.dtd"
   xmlns="http://www.w3.org/2000/svg"
   xmlns:svg="http://www.w3.org/2000/svg"><defs
   id="defs1" /><sodipodi:namedview
   id="namedview1"
   pagecolor="#ffffff"
   bordercolor="#000000"
   borderopacity="0.25"
   inkscape:showpageshadow="2"
   inkscape:pageopacity="0.0"
   inkscape:pagecheckerboard="0"
   inkscape:deskcolor="#d1d1d1"
   inkscape:zoom="7.1054688"
   inkscape:cx="128.07037"
   inkscape:cy="127.92963"
   inkscape:window-width="3840"
   inkscape:window-height="2054"
   inkscape:window-x="-11"
   inkscape:window-y="-11"
   inkscape:window-maximized="1"
   inkscape:current-layer="svg1" />

<path
   sodipodi:type="spiral"
   style="fill:none;fill-rule:evenodd;stroke:#000000;stroke-width:18.6;stroke-dasharray:none"
   id="path2"
   sodipodi:cx="127.50742"
   sodipodi:cy="127.22594"
   sodipodi:expansion="1"
   sodipodi:revolution="3"
   sodipodi:radius="88.279701"
   sodipodi:argument="-18.113779"
   sodipodi:t0="0"
   d="m 127.50742,127.22594 c 3.28119,2.9707 -2.38563,5.88861 -4.9375,5.45355 -6.91544,-1.17901 -8.45011,-9.8856 -5.96959,-15.32857 4.43706,-9.73619 17.12808,-11.48123 25.71962,-6.48563 12.60842,7.33124 14.5963,24.46669 7.00167,36.11068 -10.12245,15.5196 -31.83914,17.74679 -46.50173,7.51771 -18.451381,-12.87225 -20.915541,-39.22765 -8.033761,-56.892789 15.601561,-21.394847 46.625201,-24.09483 67.283851,-8.549797 24.3455,18.319286 27.28075,54.028376 9.06584,77.674906 -21.02984,27.30085 -61.43531,30.47108 -88.065965,9.58188 C 52.810415,152.57223 49.40534,107.463 72.971933,77.850861 99.410089,44.630519 149.22831,40.990672 181.82001,67.236898 c 36.18295,29.138285 40.05754,83.669332 11.13,119.239132" /></svg>
